HIERARCHY
ROOT Hips
{
	OFFSET -14.64140 90.27770 -84.91600
	CHANNELS 6 Xposition Yposition Zposition Zrotation Xrotation Yrotation
	JOINT Spine
	{
		OFFSET 0.00000 13.20850 -1.60436
		CHANNELS 3 Zrotation Xrotation Yrotation
		JOINT Spine1
		{
			OFFSET 0.00000 8.61716 0.00000
			CHANNELS 3 Zrotation Xrotation Yrotation
			JOINT Spine2
			{
				OFFSET 0.00000 8.61717 0.00000
				CHANNELS 3 Zrotation Xrotation Yrotation
				JOINT Spine3
				{
					OFFSET 0.00000 8.61717 0.00000
					CHANNELS 3 Zrotation Xrotation Yrotation
					JOINT Neck
					{
						OFFSET 0.00000 11.07920 1.10792
						CHANNELS 3 Zrotation Xrotation Yrotation
						JOINT Neck1
						{
							OFFSET 0.00000 7.08032 0.00000
							CHANNELS 3 Zrotation Xrotation Yrotation
							JOINT Head
							{
								OFFSET 0.00000 7.08031 0.00000
								CHANNELS 3 Zrotation Xrotation Yrotation
								End site
								{
									OFFSET 0.00000 0.00000 0.00000
								}
							}
						}
					}
					JOINT RightShoulder
					{
						OFFSET -0.01000 7.91373 5.19711
						CHANNELS 3 Zrotation Xrotation Yrotation
						JOINT RightArm
						{
							OFFSET -18.41580 0.00000 0.00000
							CHANNELS 3 Zrotation Xrotation Yrotation
							JOINT RightForeArm
							{
								OFFSET -29.11090 0.00000 0.00000
								CHANNELS 3 Zrotation Xrotation Yrotation
								JOINT RightHand
								{
									OFFSET -24.65040 0.00000 0.00000
									CHANNELS 3 Zrotation Xrotation Yrotation
									JOINT RightHandThumb1
									{
										OFFSET -5.35114 -0.85590 3.97906
										CHANNELS 3 Zrotation Xrotation Yrotation
										JOINT RightHandThumb2
										{
											OFFSET -4.52789 0.00000 0.00000
											CHANNELS 3 Zrotation Xrotation Yrotation
											JOINT RightHandThumb3
											{
												OFFSET -2.46976 0.00000 0.00000
												CHANNELS 3 Zrotation Xrotation Yrotation
												End site
												{
													OFFSET 0.00000 0.00000 0.00000
												}
											}
										}
									}
									JOINT RightHandIndex1
									{
										OFFSET -14.26970 0.00000 2.88139
										CHANNELS 3 Zrotation Xrotation Yrotation
										JOINT RightHandIndex2
										{
											OFFSET -5.48836 0.00000 0.00000
											CHANNELS 3 Zrotation Xrotation Yrotation
											JOINT RightHandIndex3
											{
												OFFSET -3.01859 0.00000 0.00000
												CHANNELS 3 Zrotation Xrotation Yrotation
												End site
												{
													OFFSET 0.00000 0.00000 0.00000
												}
											}
										}
									}
									JOINT RightHandMiddle1
									{
										OFFSET -14.26970 0.00000 -0.09147
										CHANNELS 3 Zrotation Xrotation Yrotation
										JOINT RightHandMiddle2
										{
											OFFSET -6.17441 0.00000 0.00000
											CHANNELS 3 Zrotation Xrotation Yrotation
											JOINT RightHandMiddle3
											{
												OFFSET -3.56743 0.00000 0.00000
												CHANNELS 3 Zrotation Xrotation Yrotation
												End site
												{
													OFFSET 0.00000 0.00000 0.00000
												}
											}
										}
									}
									JOINT RightHandRing1
									{
										OFFSET -12.69180 0.00000 -3.06433
										CHANNELS 3 Zrotation Xrotation Yrotation
										JOINT RightHandRing2
										{
											OFFSET -5.62556 0.00000 0.00000
											CHANNELS 3 Zrotation Xrotation Yrotation
											JOINT RightHandRing3
											{
												OFFSET -3.56744 0.00000 0.00000
												CHANNELS 3 Zrotation Xrotation Yrotation
												End site
												{
													OFFSET 0.00000 0.00000 0.00000
												}
											}
										}
									}
									JOINT RightHandPinky1
									{
										OFFSET -11.11390 0.00000 -6.03719
										CHANNELS 3 Zrotation Xrotation Yrotation
										JOINT RightHandPinky2
										{
											OFFSET -4.52789 0.00000 0.00000
											CHANNELS 3 Zrotation Xrotation Yrotation
											JOINT RightHandPinky3
											{
												OFFSET -2.46976 0.00000 0.00000
												CHANNELS 3 Zrotation Xrotation Yrotation
												End site
												{
													OFFSET 0.00000 0.00000 0.00000
												}
											}
										}
									}
								}
							}
						}
					}
					JOINT LeftShoulder
					{
						OFFSET 0.01000 7.91373 5.19711
						CHANNELS 3 Zrotation Xrotation Yrotation
						JOINT LeftArm
						{
							OFFSET 18.41580 0.00000 0.00000
							CHANNELS 3 Zrotation Xrotation Yrotation
							JOINT LeftForeArm
							{
								OFFSET 29.11090 0.00000 0.00000
								CHANNELS 3 Zrotation Xrotation Yrotation
								JOINT LeftHand
								{
									OFFSET 24.65040 0.00000 0.00000
									CHANNELS 3 Zrotation Xrotation Yrotation
									JOINT LeftHandThumb1
									{
										OFFSET 5.35114 -0.85590 3.97906
										CHANNELS 3 Zrotation Xrotation Yrotation
										JOINT LeftHandThumb2
										{
											OFFSET 4.52789 0.00000 0.00000
											CHANNELS 3 Zrotation Xrotation Yrotation
											JOINT LeftHandThumb3
											{
												OFFSET 2.46977 0.00000 0.00000
												CHANNELS 3 Zrotation Xrotation Yrotation
												End site
												{
													OFFSET 0.00000 0.00000 0.00000
												}
											}
										}
									}
									JOINT LeftHandIndex1
									{
										OFFSET 14.26970 0.00000 2.88139
										CHANNELS 3 Zrotation Xrotation Yrotation
										JOINT LeftHandIndex2
										{
											OFFSET 5.48836 0.00000 0.00000
											CHANNELS 3 Zrotation Xrotation Yrotation
											JOINT LeftHandIndex3
											{
												OFFSET 3.01859 0.00000 0.00000
												CHANNELS 3 Zrotation Xrotation Yrotation
												End site
												{
													OFFSET 0.00000 0.00000 0.00000
												}
											}
										}
									}
									JOINT LeftHandMiddle1
									{
										OFFSET 14.26970 0.00000 -0.09147
										CHANNELS 3 Zrotation Xrotation Yrotation
										JOINT LeftHandMiddle2
										{
											OFFSET 6.17440 0.00000 0.00000
											CHANNELS 3 Zrotation Xrotation Yrotation
											JOINT LeftHandMiddle3
											{
												OFFSET 3.56744 0.00000 0.00000
												CHANNELS 3 Zrotation Xrotation Yrotation
												End site
												{
													OFFSET 0.00000 0.00000 0.00000
												}
											}
										}
									}
									JOINT LeftHandRing1
									{
										OFFSET 12.69180 0.00000 -3.06433
										CHANNELS 3 Zrotation Xrotation Yrotation
										JOINT LeftHandRing2
										{
											OFFSET 5.62556 0.00000 0.00000
											CHANNELS 3 Zrotation Xrotation Yrotation
											JOINT LeftHandRing3
											{
												OFFSET 3.56744 0.00000 0.00000
												CHANNELS 3 Zrotation Xrotation Yrotation
												End site
												{
													OFFSET 0.00000 0.00000 0.00000
												}
											}
										}
									}
									JOINT LeftHandPinky1
									{
										OFFSET 11.11390 0.00000 -6.03719
										CHANNELS 3 Zrotation Xrotation Yrotation
										JOINT LeftHandPinky2
										{
											OFFSET 4.52789 0.00000 0.00000
											CHANNELS 3 Zrotation Xrotation Yrotation
											JOINT LeftHandPinky3
											{
												OFFSET 2.46976 0.00000 0.00000
												CHANNELS 3 Zrotation Xrotation Yrotation
												End site
												{
													OFFSET 0.00000 0.00000 0.00000
												}
											}
										}
									}
								}
							}
						}
					}
					JOINT pCube4
					{
						OFFSET 0.00000 10.91090 1.10792
						CHANNELS 3 Zrotation Xrotation Yrotation
						End site
						{
							OFFSET 0.00000 0.00000 0.00000
						}
					}
				}
			}
		}
	}
	JOINT RightUpLeg
	{
		OFFSET -9.98441 0.00000 0.00000
		CHANNELS 3 Zrotation Xrotation Yrotation
		JOINT RightLeg
		{
			OFFSET 0.00000 -42.11790 0.00000
			CHANNELS 3 Zrotation Xrotation Yrotation
			JOINT RightFoot
			{
				OFFSET 0.00000 -45.00020 -0.00001
				CHANNELS 3 Zrotation Xrotation Yrotation
				JOINT RightForeFoot
				{
					OFFSET 0.00000 -3.74820 0.00000
					CHANNELS 3 Zrotation Xrotation Yrotation
					JOINT RightToeBase
					{
						OFFSET 0.00000 0.06325 14.43120
						CHANNELS 3 Zrotation Xrotation Yrotation
						End site
						{
							OFFSET 0.00000 0.00000 0.00000
						}
					}
				}
			}
		}
	}
	JOINT LeftUpLeg
	{
		OFFSET 9.98441 0.00000 0.00000
		CHANNELS 3 Zrotation Xrotation Yrotation
		JOINT LeftLeg
		{
			OFFSET 0.00000 -42.11800 0.00000
			CHANNELS 3 Zrotation Xrotation Yrotation
			JOINT LeftFoot
			{
				OFFSET 0.00000 -45.00070 0.00000
				CHANNELS 3 Zrotation Xrotation Yrotation
				JOINT LeftForeFoot
				{
					OFFSET 0.00000 -3.74824 0.00000
					CHANNELS 3 Zrotation Xrotation Yrotation
					JOINT LeftToeBase
					{
						OFFSET 0.00000 0.06325 14.43110
						CHANNELS 3 Zrotation Xrotation Yrotation
						End site
						{
							OFFSET 0.00000 0.00000 0.00000
						}
					}
				}
			}
		}
	}
}
MOTION
Frames: 4
Frame Time: 0.050000
0.010591544028665923 0.0028695840765448257 0.00501607118840287 0.029058015187148536 -0.011684258079156209 -0.008802663579946511 -3.3071045898775058 0.9707163559870202 -0.8195336804569182 -0.950182575789908 3.5501161367290517 0.28328740724662826 -1.0898684567264325 -1.7776065062130568 -3.627325039317757 0.44177390954317924 0.48856456074043775 -1.17886103792973 -0.671475137775842 11.55035193024486 0.6021139672530382 -0.2366433171956544 -1.10266028951281 1.1936355927617035 -0.38719515219862044 -16.813745821930212 0.08818078803646612 -4.202023073035547 1.5991025082792412 -12.97358380707226 70.86488690424186 20.18369513682937 10.034940412865957 17.042655120971087 3.8013965686098024 73.23432046940795 16.219354465336295 -0.3641628919452853 -3.5628401431726613 4.484656302456867 -0.15730626421177563 -1.6413189104777919 -0.025014163025039685 0.007080052882885095 -56.25521307687809 0.019219169931398872 0.03825828029292106 -56.25690541212393 -38.73557482135559 -0.000762428536919345 0.016357951821238313 0.035461686360502134 0.01968141067756806 0.04852741393710779 -0.028147263900637185 0.02805516271308181 -0.03167466635174497 -36.65103896754646 -0.035404657347963046 0.029411172268022093 0.0031821006743163608 -0.007164880565380952 0.04048825096090714 -0.018177200046591933 0.0027319618406580707 -0.04503048638957166 -19.800865388480368 -0.023409935791187362 -0.010467967782817519 -0.02198860099125784 0.022143510832064894 -0.014142685683504777 0.01617650322090008 -0.030474757956635356 0.035262217088964244 24.05035753058345 0.029893443092717544 -0.04071694047471588 28.838975020337138 -0.019060169984424186 0.02815129293175034 28.824727501027542 0.03267248658450476 -0.03887227778402834 8.46187586262307 1.8682860782174282 9.991439613626394 -64.02246846657938 21.26584302962243 -29.05124575835797 -44.923314811311 0.3827342346431357 -74.8612788218886 -11.693930628202908 -4.288695348814594 3.5367231026568513 -0.5235856402827367 0.05004142228452062 -8.084702462333814 -0.008597745463437202 -0.001939679498160692 44.60788239237401 -0.009414059193710737 -0.0017841917460148988 44.579177959697496 12.42626565513205 -0.0020526425508832114 -0.012999541691732274 0.015985323953676755 0.01569706936128169 0.0027175407828708125 -0.010265522944153027 -0.02645926294635974 0.02362635281204867 11.117146013921316 0.034941031229473826 0.044288805519530655 0.0016999246350515394 0.01465332452839208 0.013025515648543554 -0.04826923106226175 -0.02347549332510413 -0.026286062637664462 4.798563925603828 -0.009258029370892271 -0.012273180734573213 -0.027120183141043135 0.011322406053236419 -0.04812745461542815 -0.0337625210882755 0.037914030820468715 0.021949004118984056 -5.630286503498121 -0.008376496589049829 0.02111261747143633 -6.746627762810398 0.0005223351058395566 0.02429410748246961 -6.752584419604331 -0.014128745079842487 0.017464947268210674 -0.027681590210014945 -0.016675541374773145 0.00215722502184892 8.05384691071446 3.5330746910680793 -19.184667076523557 -0.033444458140520966 10.345670934043712 -0.025292554406137684 -5.5995950169522235 -15.661403295788956 3.1965566711711904 0.005496572862714635 -0.026935146411074345 -0.043749088022827794 -0.03141243908757755 4.691721217183105 -0.009264220644391193 12.445449904947644 -8.242527967556063 6.848992523719997 0.02912574955069262 46.404513152251596 -0.023346477989039924 -4.323479209657426 -14.725051252362299 -3.80734855629368 -0.02095029904611796 0.037041785920658016 0.04487754895869464 -0.04283374231538435 -10.730767409213136 -0.04608423384957902 
0.005889355067532221 0.031138519513515418 0.048908697071450936 0.01749377671274589 -0.006541269417955586 -0.04906793741346346 -3.3743116234553656 0.8805099921026052 -0.8107206542774494 -0.941335285376952 3.567656540936697 0.2808942553055662 -1.111134720150464 -1.8215848330491708 -3.6633214127154567 0.4538700788458763 0.44797785146406793 -1.160188746049324 -0.6821974792374249 11.57498546029748 0.6545035600071712 -0.17116912139625273 -1.012058149289178 1.3160113913154923 -0.38091894306499985 -16.731700511239072 0.09825482989747816 -4.143763075712452 1.5710143713649667 -12.839948827926 71.02063494841443 20.22350514022865 10.367772479417573 19.74116005288282 3.7283163236513284 73.91537040968011 16.191476303600982 -0.3157796854130256 -3.5973741219837216 4.48472859790968 -0.1234314238274855 -1.5606254969676858 0.016824072562853943 -0.004603930217795434 -56.231355030953516 -0.03963086248857445 0.0238069465029146 -56.22641086381606 -38.79236464569626 -0.026190989427237448 0.026351298867924974 -0.022248081175085303 -0.00967179740222862 0.014867883179055665 -0.03853745332643673 -0.011804748969629303 -0.030653889129684184 -36.64771976053927 -0.01098414485196686 -0.03881782338316027 0.0030348029683573475 0.039706945124416256 -0.02205787662087093 -0.043638013892124496 0.012477036368695314 0.04761097209612617 -19.73492989218405 0.04026275044021912 0.031810402400112577 -0.02408765223912941 0.015303843936475284 0.027451391354206513 0.012298758688125851 0.021303437094593182 -0.01076527172539616 24.063215644312447 -0.025266050775406838 -0.004808097447004574 28.861082295531418 0.044249978816939296 0.019793439183197554 28.82917501205536 0.012107241277571377 0.01953777001002554 8.522602938778677 1.8512998183766045 9.936092956541609 -63.92625382401243 21.104634880741003 -29.502126283648796 -48.6454846485501 1.5982183952977096 -76.55215872580085 -12.094260943717645 -4.320798525950765 3.5561920730536953 -0.45564576535826795 0.10352604024694065 -8.123461543832743 0.01363770795485474 -0.025543574998475583 44.56904357902796 -0.0032485010323335746 0.04270129628911469 44.59281044183558 12.441460288303158 -0.030711128177557705 0.007382226983824011 0.006246889820603354 -0.006724142732562277 -0.01338341522711446 0.024589344827290836 -0.006235709238154196 0.019878351548466285 11.094802746308412 -0.0106294668556171 -0.027496954838077663 -0.022414680972565885 0.03124458213562975 -0.003087533471395319 0.02027390006528438 -0.036743253634663194 -0.009965804658830932 4.729101128509061 -0.014683480003912864 -0.004351568802288462 0.0470584641306926 0.03524671884439356 -0.02135261239559122 -0.04779320783516835 0.049089973710267694 0.008918052810046114 -5.576674937117776 -0.03423084866536904 0.00865497914868668 -6.768939401350219 0.0008825548569191107 -0.04618076728138282 -6.680271109587418 -0.018026583292415185 -0.03870301005463316 0.0445609667210341 -0.030809143761083967 -0.011915373157919937 8.090225334911146 3.4763475958925087 -19.236874916479927 0.004762277815592168 10.374460805643997 -0.0262081691186959 -5.647156468414499 -15.685593497633011 3.1903359024939295 0.013878568541932996 0.01346406700693966 0.013927215853297684 0.01316645600943548 4.6723373593318716 -0.04751183714142065 12.505715376818138 -8.26553034684507 6.881107698699561 0.01563614921188705 46.396379647089795 -0.009225952906849676 -4.285614879572116 -14.737043335209943 -3.847835994766458 -0.037558628558080155 -0.03776233796313551 0.04495567221648217 -0.02051385389715292 -10.731642255165385 0.03614963671472561 
-0.01279753295541013 0.03948743364958871 0.03987421684406032 0.019673660315231684 -0.031608171592708234 -0.04521366534181578 -3.322995674696868 0.8746633197522865 -0.8232405241515488 -0.988105986524874 3.522084625330726 0.33334131138761675 -1.1129227462074842 -1.8273288903355565 -3.569827512402648 0.41961317809575394 0.47706922169104476 -1.1680551255551381 -0.6586987042681296 11.548525915140617 0.6559010779907605 -0.18062354593815846 -1.054247067798431 1.3857186514056488 -0.33696894114195375 -16.739704337229625 0.13876562683255625 -4.199182024625004 1.5940071270805283 -12.933486651290906 71.17492391668333 19.820263691123174 10.496868818746846 20.800876539954107 3.407294600419487 73.32066183160077 16.38468084269783 -0.3928279233843251 -3.793272676423965 4.55662196423224 -0.16567795072191874 -1.5659215599569034 0.03712707198167752 0.032259498605643165 -56.2381952771819 0.02868813938632447 -0.032354740758239055 -56.278225606943884 -38.80381174149854 0.04659324973325012 0.014742878491571309 0.004970662024769887 -0.04913069676819518 0.018078588026593484 0.02111449927686708 0.04940909926118889 0.025844753188640764 -36.709280280959504 0.046456654256698246 0.015944170525106018 0.0323707528436653 0.0413046695550032 0.014288677264224153 -0.04291960296492571 -0.04492910455127977 -0.03493494204487006 -19.725619883789737 -0.02396229418740768 0.0019801729131951294 0.03839871329014202 0.03968011730385628 -0.015045884301808338 -0.03777259533569882 0.01863596238520301 -0.03616432239765803 24.04949545756448 -0.035978925233819965 -0.02274790959811357 28.90463267574797 0.007241747022272831 -0.003715660776279621 28.881338762692874 -0.03024128538890212 -0.04967949193967988 8.49465592891246 1.8402786167047764 10.028471536376493 -63.903770679750636 21.146763448713617 -29.4394140747275 -50.921360895867274 1.7464424341421325 -77.49565568486813 -12.320425363513781 -4.594833036205348 3.7842899531683787 -0.49087725925080544 0.04694854558805364 -8.112614303522845 -0.0031054937046008325 -0.009701379699638218 44.58213283472338 0.021624545680999765 -0.000955461559201547 44.594584262205345 12.428489153254747 0.03175364499758552 0.03672816609590086 -0.0007759574601355804 0.02772194664751788 0.011813675944511796 -0.021479878796545844 -0.02683503348207984 -0.0348489863307032 11.141085510554106 -0.0014020873550690664 0.03831067073521406 0.045865232513005796 0.049605456127486056 0.008405101446701022 -0.010788297913915175 0.0010461208155019884 -0.03969308810797326 4.729336979419148 -0.03596820725455921 0.035266509282584305 -0.00011702110548542621 -0.00734997169746428 0.024509797805191077 0.00736998690894637 -0.023413080405943327 -0.012735807219346428 -5.569893415126407 0.011825992481998745 -0.00047050055194871953 -6.672526446031786 -0.004653212029957353 0.000644084357809275 -6.7504142143743975 -0.009330303097742992 0.01964855000468768 0.042571899878965355 -0.04005048880995492 0.047547999535911954 8.061443311817392 3.4936451285109276 -19.219417714142992 0.021168836005030667 10.377476781103644 0.012239353879292482 -5.638242417192247 -15.666844071642007 3.1616605778571314 0.016967856183561995 -0.044281433629768795 0.023855234851057484 0.03226065552884591 4.701891816912415 0.02819093682865074 12.41969747927325 -8.218607243761735 6.907018903073974 0.008539851966215092 46.35146319640667 -0.011332675123572354 -4.330638472638261 -14.758151487660705 -3.807990014181402 0.0012862998216136966 -0.03165838690351592 -0.014605666557864263 0.013113831567142627 -10.71857663003781 0.04828200630054464 
0.02278556617370861 0.037991543944795175 -0.04965140371810054 0.01334537986880016 0.011936997223129823 0.03297250281190253 -3.320505789385376 0.8842118128615506 -0.8060585049339364 -0.9789537534255537 3.5296865810553615 0.3135050376876983 -1.12896165367744 -1.8000204101139308 -3.5644402287557293 0.41920933858089227 0.4372034764121907 -1.179773037336094 -0.6773783099392152 11.509948586769664 0.6341715380583908 -0.16395154529495523 -1.0307708873796442 1.192564832385536 -0.29599097285768633 -16.63428809294871 0.08912833414414346 -4.262901825300752 1.538728334415237 -12.939683228057104 71.22731474768872 19.148387194572702 10.633068832389757 21.483694729520305 2.711437513262891 72.1275085292068 16.72049830100925 -0.3255714913598632 -4.010056246823729 4.577241689063678 -0.08724522228550183 -1.6406359082383706 0.02705836634094228 -0.0366871898147056 -56.27660824023926 0.025759321095514095 0.024914269158847993 -56.18431742778039 -38.74770497942086 -0.034932671529064895 0.0274199656245857 -0.021407762114148802 -0.013073203962601962 0.005730421167570164 -0.04632371939850671 -0.03868535192989796 -0.035688286809866805 -36.681861046495676 -0.012318434859453994 0.006096529597875629 0.006033436824852616 -0.03222367542660577 0.02376354193235555 0.012237848492364268 -0.005110512108699985 -0.005966512669647762 -19.77768196821656 -0.016626403166113905 -0.04109541843462459 0.02696421911873709 -0.03775406465393596 0.02991248476859369 0.011272785661380765 0.013719346062371778 -0.0010911113579603032 24.043703717115967 0.011337851559819851 -0.027761574828653206 28.82625026054471 -0.046497331282870806 0.03863070822637524 28.830849258093437 0.045937012041628096 -0.0194151202815454 8.529493023382175 1.9190911042990961 10.040114434486062 -63.85180826562094 21.142723276218742 -29.196217986077137 -51.771998897444696 1.0969925575050745 -78.12146309936894 -12.19444124966263 -5.015551330448077 4.067039468518304 -0.4921054076112582 0.05713480249155875 -8.094703928864446 -0.04099485796294671 -0.021358571851813102 44.57738700065829 0.032607114258415615 0.046006060240142276 44.58736271635352 12.447871223864794 -0.039928055657164646 -0.023073389647762278 0.004535633727618909 0.031541312535430494 -0.020957585557532275 -0.027268242285443323 -0.01502290857995082 -0.008655309296768705 11.07327831395916 0.04255852722164385 0.035570400698102175 -0.021099143005372956 0.010115060622529965 0.03181230166463906 -0.03321549477802031 0.04533698744067952 0.02770841386858123 4.803055734980079 -0.0481765736152362 -0.025303141168491573 -0.04393208723636628 -0.035877225417665956 -0.021964910891223148 -0.011564786805612456 -0.015361755821839464 0.02732802085637177 -5.634144181607931 0.007378643012864151 0.033446452832675146 -6.751651800699799 0.04420553336946065 -0.0017528208667716575 -6.730135270980325 -0.018239643710367483 0.01017614602007396 0.010934974412230156 -0.048039353827521794 -0.04615027128689562 8.05460440453449 3.4597459574209872 -19.177630615796467 -0.01138604678441229 10.43251315456682 -0.011456087243295162 -5.638644042407208 -15.610947338995926 3.1611861295588404 -0.02185863899143115 -0.016729424440504886 0.03971718153740409 -0.005122646838435855 4.678009829288297 -0.01622338425947023 12.501102003943446 -8.236701856939767 6.86312492787147 -0.04052352105158414 46.3520632374651 -0.005690821221713981 -4.302011655987582 -14.739946951386663 -3.83456707919808 0.0029653656359908452 -0.003949308919667201 0.007207831635369144 0.026619926501540617 -10.751613745143 -0.01598539961012078 
